<svg xmlns="http://www.w3.org/2000/svg" xmlns:xlink="http://www.w3.org/1999/xlink" width="500" zoomAndPan="magnify" viewBox="0 0 375 374.999991" height="500" preserveAspectRatio="xMidYMid meet" version="1.2"><defs><clipPath id="a31d279c89"><path d="M 83 151.585938 L 116 151.585938 L 116 177 L 83 177 Z M 83 151.585938 "/></clipPath><clipPath id="92958c88b1"><path d="M 51.335938 154 L 94 154 L 94 215 L 51.335938 215 Z M 51.335938 154 "/></clipPath><clipPath id="04bd559209"><path d="M 56 154 L 180.21875 154 L 180.21875 223.410156 L 56 223.410156 Z M 56 154 "/></clipPath></defs><g id="35eddcb24f"><g clip-rule="nonzero" clip-path="url(#a31d279c89)"><path style=" stroke:none;fill-rule:nonzero;fill:#1800ad;fill-opacity:1;" d="M 83.113281 161.132812 C 83.800781 161.480469 84.40625 161.96875 84.867188 162.570312 L 89.351562 158.199219 C 89.8125 158.429688 90.300781 158.546875 90.847656 158.546875 C 91.019531 158.546875 91.222656 158.515625 91.394531 158.515625 L 95.304688 163.953125 C 94.671875 164.585938 94.296875 165.449219 94.296875 166.394531 C 94.296875 168.292969 95.824219 169.816406 97.71875 169.816406 C 98.582031 169.816406 99.386719 169.5 99.992188 168.957031 C 103.039062 170.796875 105.601562 173.328125 107.527344 176.316406 C 108.015625 177.09375 109.195312 176.949219 109.480469 176.085938 L 109.480469 176.058594 C 109.597656 175.742188 109.539062 175.367188 109.367188 175.082031 C 107.269531 171.800781 104.421875 169.042969 101.085938 167.027344 C 101.085938 166.972656 101.113281 166.914062 101.113281 166.828125 L 107.039062 166.222656 C 106.863281 165.734375 106.777344 165.21875 106.777344 164.671875 C 106.777344 164.441406 106.808594 164.183594 106.835938 163.953125 L 100.625 164.585938 C 100.019531 163.605469 98.929688 162.945312 97.691406 162.945312 C 97.578125 162.945312 97.460938 162.945312 97.375 162.972656 L 93.378906 157.425781 C 93.550781 157.222656 93.722656 157.023438 93.839844 156.792969 C 99.1875 157.742188 104.21875 160.042969 108.476562 163.519531 C 108.332031 163.894531 108.273438 164.296875 108.273438 164.699219 C 108.273438 166.597656 109.796875 168.121094 111.695312 168.121094 C 113.59375 168.121094 115.117188 166.597656 115.117188 164.699219 C 115.117188 162.800781 113.59375 161.277344 111.695312 161.277344 C 111.035156 161.277344 110.402344 161.480469 109.882812 161.796875 C 105.457031 158.199219 100.105469 155.671875 94.242188 154.605469 C 93.980469 152.96875 92.574219 151.730469 90.847656 151.730469 C 88.949219 151.730469 87.425781 153.253906 87.425781 155.152344 C 87.425781 155.671875 87.539062 156.1875 87.769531 156.621094 Z M 97.71875 164.441406 C 98.785156 164.441406 99.648438 165.304688 99.648438 166.367188 C 99.648438 167.429688 98.785156 168.292969 97.71875 168.292969 C 96.65625 168.292969 95.792969 167.429688 95.792969 166.367188 C 95.792969 165.304688 96.65625 164.441406 97.71875 164.441406 Z M 90.875 153.195312 C 91.941406 153.195312 92.804688 154.058594 92.804688 155.125 C 92.804688 156.1875 91.941406 157.050781 90.875 157.050781 C 89.8125 157.050781 88.949219 156.1875 88.949219 155.125 C 88.921875 154.058594 89.8125 153.195312 90.875 153.195312 Z M 90.875 153.195312 "/></g><g clip-rule="nonzero" clip-path="url(#92958c88b1)"><path style=" stroke:none;fill-rule:nonzero;fill:#1800ad;fill-opacity:1;" d="M 53.523438 187.070312 C 53.492188 187.53125 53.492188 188.019531 53.492188 188.480469 C 53.4375 198.660156 57.835938 207.863281 64.851562 214.246094 C 65.167969 213.554688 65.628906 212.953125 66.203125 212.492188 C 66.175781 212.464844 66.144531 212.433594 66.117188 212.40625 C 59.160156 205.9375 55.421875 196.964844 55.765625 187.445312 C 55.765625 187.359375 55.765625 187.273438 55.765625 187.1875 C 57.175781 186.753906 58.210938 185.460938 58.210938 183.910156 C 58.210938 183.648438 58.179688 183.390625 58.125 183.160156 L 64.480469 179.050781 C 65.109375 179.738281 66.003906 180.171875 67.007812 180.171875 C 68.90625 180.171875 70.429688 178.644531 70.429688 176.75 C 70.429688 176 70.199219 175.3125 69.796875 174.765625 C 72.042969 171.800781 75.003906 169.414062 78.398438 167.835938 C 79.027344 168.554688 79.949219 169.011719 80.984375 169.011719 C 82.738281 169.011719 84.207031 167.691406 84.378906 165.964844 C 85.613281 165.761719 86.910156 165.648438 88.203125 165.675781 C 89.785156 165.675781 91.308594 165.851562 92.773438 166.167969 C 92.804688 165.390625 93.035156 164.671875 93.40625 164.007812 C 91.566406 163.605469 89.667969 163.40625 87.714844 163.433594 C 86.417969 163.464844 85.125 163.578125 83.859375 163.78125 C 83.257812 162.800781 82.191406 162.167969 80.957031 162.167969 C 79.976562 162.167969 79.085938 162.570312 78.484375 163.234375 L 71.753906 162.253906 C 71.753906 162.398438 71.78125 162.542969 71.78125 162.6875 C 71.78125 163.320312 71.667969 163.921875 71.4375 164.5 L 77.5625 165.390625 C 77.5625 165.449219 77.5625 165.535156 77.5625 165.589844 C 77.5625 165.648438 77.5625 165.707031 77.5625 165.734375 C 73.765625 167.488281 70.488281 170.164062 67.988281 173.441406 C 67.902344 173.414062 67.8125 173.382812 67.726562 173.382812 L 67.726562 165.992188 C 69.195312 165.621094 70.289062 164.269531 70.289062 162.6875 C 70.289062 162.339844 70.230469 162.023438 70.144531 161.710938 C 74.859375 158.546875 80.351562 156.707031 86.101562 156.359375 C 86.015625 155.988281 85.960938 155.582031 85.960938 155.152344 C 85.960938 154.808594 85.988281 154.460938 86.074219 154.117188 C 79.804688 154.492188 73.910156 156.589844 68.9375 159.953125 C 68.359375 159.523438 67.640625 159.265625 66.867188 159.265625 C 64.96875 159.265625 63.441406 160.789062 63.441406 162.6875 C 63.441406 163.234375 63.558594 163.722656 63.789062 164.183594 C 59.332031 168.609375 56.023438 174.246094 54.472656 180.488281 C 52.71875 180.628906 51.335938 182.097656 51.335938 183.910156 C 51.367188 185.316406 52.257812 186.554688 53.523438 187.070312 Z M 67.007812 174.792969 C 68.074219 174.792969 68.9375 175.65625 68.9375 176.71875 C 68.9375 177.785156 68.074219 178.644531 67.007812 178.644531 C 65.945312 178.644531 65.082031 177.785156 65.082031 176.71875 C 65.082031 175.65625 65.945312 174.792969 67.007812 174.792969 Z M 65.253906 165.675781 C 65.339844 165.707031 65.398438 165.761719 65.484375 165.792969 L 65.484375 173.671875 C 64.363281 174.246094 63.585938 175.398438 63.585938 176.71875 C 63.585938 176.777344 63.585938 176.835938 63.585938 176.890625 L 56.914062 181.207031 C 56.828125 181.121094 56.714844 181.0625 56.628906 181.003906 C 58.039062 175.222656 61 169.90625 65.253906 165.675781 Z M 54.789062 181.925781 C 55.851562 181.925781 56.714844 182.789062 56.714844 183.851562 C 56.714844 184.914062 55.851562 185.777344 54.789062 185.777344 C 53.722656 185.777344 52.859375 184.914062 52.859375 183.851562 C 52.859375 182.789062 53.695312 181.925781 54.789062 181.925781 Z M 54.789062 181.925781 "/></g><g clip-rule="nonzero" clip-path="url(#04bd559209)"><path style=" stroke:none;fill-rule:nonzero;fill:#004aad;fill-opacity:1;" d="M 63.214844 197.625 C 63.128906 197.914062 63.097656 198.199219 63.097656 198.515625 C 63.097656 200.128906 64.191406 201.480469 65.6875 201.851562 L 67.179688 213.585938 C 66.375 214.21875 65.886719 215.195312 65.886719 216.257812 C 65.886719 218.15625 67.410156 219.679688 69.308594 219.679688 C 70.113281 219.679688 70.832031 219.394531 71.410156 218.960938 C 76.355469 221.695312 82.046875 223.246094 88.085938 223.246094 C 91.882812 223.246094 95.535156 222.644531 98.929688 221.523438 C 99.5625 222.183594 100.421875 222.585938 101.402344 222.585938 C 103.300781 222.585938 104.824219 221.0625 104.824219 219.164062 C 104.824219 218.214844 104.449219 217.382812 103.84375 216.75 L 107.46875 207.632812 C 108.5625 207.203125 109.367188 206.195312 109.566406 205.015625 L 116.527344 201.621094 C 116.039062 201.046875 115.722656 200.355469 115.550781 199.609375 L 109.136719 202.742188 C 109.109375 202.714844 109.109375 202.6875 109.078125 202.65625 C 111.207031 199.464844 112.644531 195.757812 113.132812 191.757812 C 113.363281 189.976562 114.886719 188.652344 116.671875 188.652344 C 118.828125 188.652344 120.464844 190.523438 120.207031 192.652344 C 120.09375 193.484375 119.976562 194.320312 119.804688 195.125 C 118.136719 195.355469 116.871094 196.792969 116.871094 198.515625 C 116.871094 199.523438 117.304688 200.414062 117.992188 201.046875 C 116.382812 204.929688 114.023438 208.464844 110.976562 211.542969 C 109.222656 213.296875 107.296875 214.820312 105.253906 216.117188 C 105.714844 216.691406 106.058594 217.382812 106.203125 218.128906 C 112.359375 214.332031 117.21875 208.667969 120.035156 201.9375 C 120.121094 201.9375 120.207031 201.9375 120.292969 201.9375 C 122.191406 201.9375 123.714844 200.414062 123.714844 198.515625 C 123.714844 197.25 123.027344 196.128906 121.992188 195.527344 C 122.421875 193.371094 122.652344 191.15625 122.679688 188.882812 C 122.765625 176.171875 132.859375 165.707031 145.570312 165.648438 C 158.367188 165.589844 168.777344 176.03125 168.660156 188.855469 C 168.546875 201.480469 158.136719 211.714844 145.542969 211.628906 C 139.734375 211.601562 134.441406 209.414062 130.417969 205.820312 C 127.683594 203.375 123.371094 204.066406 121.589844 207.289062 C 121.558594 207.316406 121.53125 207.375 121.53125 207.402344 C 120.207031 209.761719 120.726562 212.722656 122.738281 214.535156 C 128.921875 220.027344 137.085938 223.332031 146.03125 223.246094 C 165.097656 223.074219 180.335938 207.632812 180.308594 188.566406 C 180.28125 169.472656 164.78125 154.03125 145.6875 154.03125 C 126.648438 154.03125 111.207031 169.386719 111.0625 188.394531 C 111.035156 193.109375 109.625 197.539062 107.210938 201.21875 C 106.894531 201.105469 106.519531 201.046875 106.175781 201.046875 C 104.277344 201.046875 102.753906 202.570312 102.753906 204.46875 C 102.753906 205.964844 103.703125 207.230469 105.023438 207.691406 L 101.832031 215.742188 C 101.6875 215.714844 101.574219 215.714844 101.429688 215.714844 C 99.53125 215.714844 98.007812 217.238281 98.007812 219.136719 C 98.007812 219.25 98.007812 219.363281 98.035156 219.453125 C 94.902344 220.457031 91.625 221.003906 88.289062 221.003906 C 82.996094 221.03125 77.792969 219.769531 73.164062 217.351562 L 81.589844 215.453125 C 81.1875 214.820312 80.925781 214.101562 80.839844 213.328125 L 72.558594 215.195312 C 72.128906 213.84375 70.863281 212.867188 69.367188 212.835938 L 68.246094 204.210938 C 71.726562 208.640625 76.671875 211.859375 82.308594 213.210938 C 82.539062 214.90625 83.976562 216.230469 85.730469 216.230469 C 86.304688 216.230469 86.820312 216.085938 87.28125 215.855469 L 96.511719 218.875 C 96.570312 218.101562 96.800781 217.351562 97.144531 216.71875 L 88.921875 214.046875 C 88.949219 213.988281 88.949219 213.929688 88.980469 213.871094 C 94.441406 213.671875 99.476562 211.746094 103.5 208.609375 C 102.839844 208.179688 102.292969 207.605469 101.917969 206.941406 C 98.296875 209.730469 93.808594 211.457031 88.921875 211.628906 C 88.433594 210.308594 87.195312 209.386719 85.699219 209.386719 C 84.464844 209.386719 83.371094 210.046875 82.765625 211.027344 C 76.902344 209.644531 71.898438 206.023438 68.734375 201.105469 C 69.453125 200.472656 69.914062 199.550781 69.914062 198.515625 C 69.914062 196.617188 68.390625 195.09375 66.492188 195.09375 C 66.320312 195.09375 66.175781 195.09375 66.003906 195.125 C 65.371094 192.996094 65.054688 190.753906 65.082031 188.421875 C 65.109375 186.035156 65.484375 183.734375 66.203125 181.550781 C 65.457031 181.4375 64.738281 181.121094 64.132812 180.6875 C 63.328125 183.105469 62.867188 185.71875 62.839844 188.394531 C 62.8125 190.351562 63.039062 192.277344 63.441406 194.117188 L 58.410156 187.15625 C 57.894531 187.734375 57.261719 188.164062 56.570312 188.453125 Z M 104.25 204.46875 C 104.25 203.40625 105.109375 202.542969 106.175781 202.542969 C 107.238281 202.542969 108.101562 203.40625 108.101562 204.46875 C 108.101562 205.535156 107.238281 206.394531 106.175781 206.394531 C 105.109375 206.394531 104.25 205.535156 104.25 204.46875 Z M 101.429688 217.207031 C 102.496094 217.207031 103.355469 218.070312 103.355469 219.136719 C 103.355469 220.199219 102.496094 221.0625 101.429688 221.0625 C 100.367188 221.0625 99.503906 220.199219 99.503906 219.136719 C 99.503906 218.070312 100.335938 217.207031 101.429688 217.207031 Z M 66.519531 196.589844 C 67.585938 196.589844 68.445312 197.453125 68.445312 198.515625 C 68.445312 199.582031 67.585938 200.445312 66.519531 200.445312 C 65.457031 200.445312 64.59375 199.582031 64.59375 198.515625 C 64.566406 197.453125 65.425781 196.589844 66.519531 196.589844 Z M 66.519531 196.589844 "/></g><g style="fill:#004aad;fill-opacity:1;"><g transform="translate(199.309899, 187.875031)"><path style="stroke:none" d="M 24.15625 -5.21875 L 20.109375 -5.21875 L 20.109375 0 L 14.484375 0 L 14.484375 -5.21875 L 1.09375 -5.21875 L 1.09375 -9.09375 L 12.828125 -24.859375 L 18.859375 -24.859375 L 7.984375 -9.90625 L 14.671875 -9.90625 L 14.671875 -14.5625 L 20.109375 -14.5625 L 20.109375 -9.90625 L 24.15625 -9.90625 Z M 24.15625 -5.21875 "/></g></g><g style="fill:#004aad;fill-opacity:1;"><g transform="translate(223.774768, 187.875031)"><path style="stroke:none" d="M 13.359375 -15.59375 C 14.941406 -15.59375 16.382812 -15.269531 17.6875 -14.625 C 18.988281 -13.988281 20.015625 -13.082031 20.765625 -11.90625 C 21.523438 -10.738281 21.90625 -9.382812 21.90625 -7.84375 C 21.90625 -6.1875 21.488281 -4.726562 20.65625 -3.46875 C 19.832031 -2.21875 18.703125 -1.253906 17.265625 -0.578125 C 15.835938 0.0859375 14.25 0.421875 12.5 0.421875 C 9.019531 0.421875 6.296875 -0.640625 4.328125 -2.765625 C 2.367188 -4.898438 1.390625 -7.941406 1.390625 -11.890625 C 1.390625 -14.710938 1.921875 -17.128906 2.984375 -19.140625 C 4.046875 -21.148438 5.53125 -22.675781 7.4375 -23.71875 C 9.34375 -24.757812 11.550781 -25.28125 14.0625 -25.28125 C 15.382812 -25.28125 16.65625 -25.132812 17.875 -24.84375 C 19.101562 -24.550781 20.140625 -24.128906 20.984375 -23.578125 L 18.859375 -19.359375 C 17.628906 -20.179688 16.078125 -20.59375 14.203125 -20.59375 C 12.097656 -20.59375 10.429688 -19.976562 9.203125 -18.75 C 7.972656 -17.519531 7.304688 -15.734375 7.203125 -13.390625 C 8.671875 -14.859375 10.722656 -15.59375 13.359375 -15.59375 Z M 12.1875 -3.875 C 13.414062 -3.875 14.414062 -4.203125 15.1875 -4.859375 C 15.957031 -5.523438 16.34375 -6.425781 16.34375 -7.5625 C 16.34375 -8.695312 15.957031 -9.601562 15.1875 -10.28125 C 14.414062 -10.957031 13.390625 -11.296875 12.109375 -11.296875 C 10.859375 -11.296875 9.828125 -10.945312 9.015625 -10.25 C 8.210938 -9.550781 7.8125 -8.65625 7.8125 -7.5625 C 7.8125 -6.476562 8.203125 -5.59375 8.984375 -4.90625 C 9.765625 -4.21875 10.832031 -3.875 12.1875 -3.875 Z M 12.1875 -3.875 "/></g></g><g style="fill:#004aad;fill-opacity:1;"><g transform="translate(246.393236, 187.875031)"><path style="stroke:none" d="M 18.390625 -13.0625 C 19.628906 -12.445312 20.570312 -11.640625 21.21875 -10.640625 C 21.875 -9.648438 22.203125 -8.503906 22.203125 -7.203125 C 22.203125 -5.671875 21.757812 -4.328125 20.875 -3.171875 C 20 -2.023438 18.769531 -1.140625 17.1875 -0.515625 C 15.601562 0.109375 13.769531 0.421875 11.6875 0.421875 C 9.601562 0.421875 7.769531 0.109375 6.1875 -0.515625 C 4.613281 -1.140625 3.394531 -2.023438 2.53125 -3.171875 C 1.675781 -4.328125 1.25 -5.671875 1.25 -7.203125 C 1.25 -8.503906 1.570312 -9.648438 2.21875 -10.640625 C 2.875 -11.640625 3.800781 -12.445312 5 -13.0625 C 4.082031 -13.632812 3.375 -14.351562 2.875 -15.21875 C 2.375 -16.082031 2.125 -17.070312 2.125 -18.1875 C 2.125 -19.625 2.523438 -20.875 3.328125 -21.9375 C 4.140625 -23.007812 5.265625 -23.832031 6.703125 -24.40625 C 8.148438 -24.988281 9.8125 -25.28125 11.6875 -25.28125 C 13.582031 -25.28125 15.253906 -24.988281 16.703125 -24.40625 C 18.160156 -23.832031 19.289062 -23.007812 20.09375 -21.9375 C 20.90625 -20.875 21.3125 -19.625 21.3125 -18.1875 C 21.3125 -17.070312 21.0625 -16.082031 20.5625 -15.21875 C 20.0625 -14.351562 19.335938 -13.632812 18.390625 -13.0625 Z M 11.6875 -21.0625 C 10.519531 -21.0625 9.585938 -20.78125 8.890625 -20.21875 C 8.191406 -19.664062 7.84375 -18.90625 7.84375 -17.9375 C 7.84375 -16.988281 8.1875 -16.238281 8.875 -15.6875 C 9.5625 -15.144531 10.5 -14.875 11.6875 -14.875 C 12.863281 -14.875 13.804688 -15.144531 14.515625 -15.6875 C 15.234375 -16.238281 15.59375 -16.988281 15.59375 -17.9375 C 15.59375 -18.90625 15.234375 -19.664062 14.515625 -20.21875 C 13.804688 -20.78125 12.863281 -21.0625 11.6875 -21.0625 Z M 11.6875 -3.796875 C 13.125 -3.796875 14.265625 -4.117188 15.109375 -4.765625 C 15.953125 -5.421875 16.375 -6.296875 16.375 -7.390625 C 16.375 -8.472656 15.953125 -9.332031 15.109375 -9.96875 C 14.265625 -10.613281 13.125 -10.9375 11.6875 -10.9375 C 10.257812 -10.9375 9.128906 -10.613281 8.296875 -9.96875 C 7.472656 -9.332031 7.0625 -8.472656 7.0625 -7.390625 C 7.0625 -6.273438 7.472656 -5.394531 8.296875 -4.75 C 9.128906 -4.113281 10.257812 -3.796875 11.6875 -3.796875 Z M 11.6875 -3.796875 "/></g></g><g style="fill:#004aad;fill-opacity:1;"><g transform="translate(269.828377, 187.875031)"><path style="stroke:none" d="M 18.390625 -13.0625 C 19.628906 -12.445312 20.570312 -11.640625 21.21875 -10.640625 C 21.875 -9.648438 22.203125 -8.503906 22.203125 -7.203125 C 22.203125 -5.671875 21.757812 -4.328125 20.875 -3.171875 C 20 -2.023438 18.769531 -1.140625 17.1875 -0.515625 C 15.601562 0.109375 13.769531 0.421875 11.6875 0.421875 C 9.601562 0.421875 7.769531 0.109375 6.1875 -0.515625 C 4.613281 -1.140625 3.394531 -2.023438 2.53125 -3.171875 C 1.675781 -4.328125 1.25 -5.671875 1.25 -7.203125 C 1.25 -8.503906 1.570312 -9.648438 2.21875 -10.640625 C 2.875 -11.640625 3.800781 -12.445312 5 -13.0625 C 4.082031 -13.632812 3.375 -14.351562 2.875 -15.21875 C 2.375 -16.082031 2.125 -17.070312 2.125 -18.1875 C 2.125 -19.625 2.523438 -20.875 3.328125 -21.9375 C 4.140625 -23.007812 5.265625 -23.832031 6.703125 -24.40625 C 8.148438 -24.988281 9.8125 -25.28125 11.6875 -25.28125 C 13.582031 -25.28125 15.253906 -24.988281 16.703125 -24.40625 C 18.160156 -23.832031 19.289062 -23.007812 20.09375 -21.9375 C 20.90625 -20.875 21.3125 -19.625 21.3125 -18.1875 C 21.3125 -17.070312 21.0625 -16.082031 20.5625 -15.21875 C 20.0625 -14.351562 19.335938 -13.632812 18.390625 -13.0625 Z M 11.6875 -21.0625 C 10.519531 -21.0625 9.585938 -20.78125 8.890625 -20.21875 C 8.191406 -19.664062 7.84375 -18.90625 7.84375 -17.9375 C 7.84375 -16.988281 8.1875 -16.238281 8.875 -15.6875 C 9.5625 -15.144531 10.5 -14.875 11.6875 -14.875 C 12.863281 -14.875 13.804688 -15.144531 14.515625 -15.6875 C 15.234375 -16.238281 15.59375 -16.988281 15.59375 -17.9375 C 15.59375 -18.90625 15.234375 -19.664062 14.515625 -20.21875 C 13.804688 -20.78125 12.863281 -21.0625 11.6875 -21.0625 Z M 11.6875 -3.796875 C 13.125 -3.796875 14.265625 -4.117188 15.109375 -4.765625 C 15.953125 -5.421875 16.375 -6.296875 16.375 -7.390625 C 16.375 -8.472656 15.953125 -9.332031 15.109375 -9.96875 C 14.265625 -10.613281 13.125 -10.9375 11.6875 -10.9375 C 10.257812 -10.9375 9.128906 -10.613281 8.296875 -9.96875 C 7.472656 -9.332031 7.0625 -8.472656 7.0625 -7.390625 C 7.0625 -6.273438 7.472656 -5.394531 8.296875 -4.75 C 9.128906 -4.113281 10.257812 -3.796875 11.6875 -3.796875 Z M 11.6875 -3.796875 "/></g></g><g style="fill:#004aad;fill-opacity:1;"><g transform="translate(187.499992, 210.452389)"><path style="stroke:none" d="M 3.53125 -8.8125 L 0.0625 -8.8125 L 0.0625 -10.859375 L 9.53125 -10.859375 L 9.53125 -8.8125 L 6.046875 -8.8125 L 6.046875 0 L 3.53125 0 Z M 3.53125 -8.8125 "/></g></g><g style="fill:#004aad;fill-opacity:1;"><g transform="translate(197.081397, 210.452389)"><path style="stroke:none" d="M 9.703125 -2.015625 L 9.703125 0 L 1.28125 0 L 1.28125 -10.859375 L 9.5 -10.859375 L 9.5 -8.84375 L 3.78125 -8.84375 L 3.78125 -6.484375 L 8.828125 -6.484375 L 8.828125 -4.53125 L 3.78125 -4.53125 L 3.78125 -2.015625 Z M 9.703125 -2.015625 "/></g></g><g style="fill:#004aad;fill-opacity:1;"><g transform="translate(207.484499, 210.452389)"><path style="stroke:none" d="M 6.484375 0.1875 C 5.378906 0.1875 4.378906 -0.0507812 3.484375 -0.53125 C 2.585938 -1.007812 1.882812 -1.675781 1.375 -2.53125 C 0.863281 -3.382812 0.609375 -4.351562 0.609375 -5.4375 C 0.609375 -6.507812 0.863281 -7.472656 1.375 -8.328125 C 1.882812 -9.179688 2.585938 -9.847656 3.484375 -10.328125 C 4.378906 -10.804688 5.382812 -11.046875 6.5 -11.046875 C 7.4375 -11.046875 8.285156 -10.878906 9.046875 -10.546875 C 9.804688 -10.210938 10.445312 -9.738281 10.96875 -9.125 L 9.359375 -7.640625 C 8.617188 -8.484375 7.707031 -8.90625 6.625 -8.90625 C 5.945312 -8.90625 5.34375 -8.753906 4.8125 -8.453125 C 4.289062 -8.160156 3.882812 -7.75 3.59375 -7.21875 C 3.300781 -6.695312 3.15625 -6.101562 3.15625 -5.4375 C 3.15625 -4.757812 3.300781 -4.15625 3.59375 -3.625 C 3.882812 -3.101562 4.289062 -2.691406 4.8125 -2.390625 C 5.34375 -2.097656 5.945312 -1.953125 6.625 -1.953125 C 7.707031 -1.953125 8.617188 -2.382812 9.359375 -3.25 L 10.96875 -1.75 C 10.445312 -1.125 9.800781 -0.644531 9.03125 -0.3125 C 8.269531 0.0195312 7.421875 0.1875 6.484375 0.1875 Z M 6.484375 0.1875 "/></g></g><g style="fill:#004aad;fill-opacity:1;"><g transform="translate(218.848848, 210.452389)"><path style="stroke:none" d="M 11.25 -10.859375 L 11.25 0 L 8.734375 0 L 8.734375 -4.453125 L 3.796875 -4.453125 L 3.796875 0 L 1.28125 0 L 1.28125 -10.859375 L 3.796875 -10.859375 L 3.796875 -6.578125 L 8.734375 -6.578125 L 8.734375 -10.859375 Z M 11.25 -10.859375 "/></g></g><g style="fill:#004aad;fill-opacity:1;"><g transform="translate(231.375985, 210.452389)"><path style="stroke:none" d="M 11.25 -10.859375 L 11.25 0 L 9.1875 0 L 3.765625 -6.59375 L 3.765625 0 L 1.28125 0 L 1.28125 -10.859375 L 3.359375 -10.859375 L 8.765625 -4.265625 L 8.765625 -10.859375 Z M 11.25 -10.859375 "/></g></g><g style="fill:#004aad;fill-opacity:1;"><g transform="translate(243.903122, 210.452389)"><path style="stroke:none" d="M 6.546875 0.1875 C 5.421875 0.1875 4.40625 -0.0507812 3.5 -0.53125 C 2.59375 -1.019531 1.882812 -1.691406 1.375 -2.546875 C 0.863281 -3.398438 0.609375 -4.363281 0.609375 -5.4375 C 0.609375 -6.5 0.863281 -7.457031 1.375 -8.3125 C 1.882812 -9.164062 2.59375 -9.832031 3.5 -10.3125 C 4.40625 -10.800781 5.421875 -11.046875 6.546875 -11.046875 C 7.671875 -11.046875 8.679688 -10.800781 9.578125 -10.3125 C 10.484375 -9.832031 11.191406 -9.164062 11.703125 -8.3125 C 12.222656 -7.457031 12.484375 -6.5 12.484375 -5.4375 C 12.484375 -4.363281 12.222656 -3.398438 11.703125 -2.546875 C 11.191406 -1.691406 10.484375 -1.019531 9.578125 -0.53125 C 8.679688 -0.0507812 7.671875 0.1875 6.546875 0.1875 Z M 6.546875 -1.953125 C 7.191406 -1.953125 7.769531 -2.097656 8.28125 -2.390625 C 8.800781 -2.691406 9.207031 -3.101562 9.5 -3.625 C 9.800781 -4.15625 9.953125 -4.757812 9.953125 -5.4375 C 9.953125 -6.101562 9.800781 -6.695312 9.5 -7.21875 C 9.207031 -7.75 8.800781 -8.160156 8.28125 -8.453125 C 7.769531 -8.753906 7.191406 -8.90625 6.546875 -8.90625 C 5.898438 -8.90625 5.316406 -8.753906 4.796875 -8.453125 C 4.285156 -8.160156 3.882812 -7.75 3.59375 -7.21875 C 3.300781 -6.695312 3.15625 -6.101562 3.15625 -5.4375 C 3.15625 -4.757812 3.300781 -4.15625 3.59375 -3.625 C 3.882812 -3.101562 4.285156 -2.691406 4.796875 -2.390625 C 5.316406 -2.097656 5.898438 -1.953125 6.546875 -1.953125 Z M 6.546875 -1.953125 "/></g></g><g style="fill:#004aad;fill-opacity:1;"><g transform="translate(256.988399, 210.452389)"><path style="stroke:none" d="M 1.28125 -10.859375 L 3.796875 -10.859375 L 3.796875 -2.046875 L 9.25 -2.046875 L 9.25 0 L 1.28125 0 Z M 1.28125 -10.859375 "/></g></g><g style="fill:#004aad;fill-opacity:1;"><g transform="translate(266.352744, 210.452389)"><path style="stroke:none" d="M 6.546875 0.1875 C 5.421875 0.1875 4.40625 -0.0507812 3.5 -0.53125 C 2.59375 -1.019531 1.882812 -1.691406 1.375 -2.546875 C 0.863281 -3.398438 0.609375 -4.363281 0.609375 -5.4375 C 0.609375 -6.5 0.863281 -7.457031 1.375 -8.3125 C 1.882812 -9.164062 2.59375 -9.832031 3.5 -10.3125 C 4.40625 -10.800781 5.421875 -11.046875 6.546875 -11.046875 C 7.671875 -11.046875 8.679688 -10.800781 9.578125 -10.3125 C 10.484375 -9.832031 11.191406 -9.164062 11.703125 -8.3125 C 12.222656 -7.457031 12.484375 -6.5 12.484375 -5.4375 C 12.484375 -4.363281 12.222656 -3.398438 11.703125 -2.546875 C 11.191406 -1.691406 10.484375 -1.019531 9.578125 -0.53125 C 8.679688 -0.0507812 7.671875 0.1875 6.546875 0.1875 Z M 6.546875 -1.953125 C 7.191406 -1.953125 7.769531 -2.097656 8.28125 -2.390625 C 8.800781 -2.691406 9.207031 -3.101562 9.5 -3.625 C 9.800781 -4.15625 9.953125 -4.757812 9.953125 -5.4375 C 9.953125 -6.101562 9.800781 -6.695312 9.5 -7.21875 C 9.207031 -7.75 8.800781 -8.160156 8.28125 -8.453125 C 7.769531 -8.753906 7.191406 -8.90625 6.546875 -8.90625 C 5.898438 -8.90625 5.316406 -8.753906 4.796875 -8.453125 C 4.285156 -8.160156 3.882812 -7.75 3.59375 -7.21875 C 3.300781 -6.695312 3.15625 -6.101562 3.15625 -5.4375 C 3.15625 -4.757812 3.300781 -4.15625 3.59375 -3.625 C 3.882812 -3.101562 4.285156 -2.691406 4.796875 -2.390625 C 5.316406 -2.097656 5.898438 -1.953125 6.546875 -1.953125 Z M 6.546875 -1.953125 "/></g></g><g style="fill:#004aad;fill-opacity:1;"><g transform="translate(279.438021, 210.452389)"><path style="stroke:none" d="M 8.625 -5.59375 L 10.921875 -5.59375 L 10.921875 -1.1875 C 10.328125 -0.75 9.644531 -0.410156 8.875 -0.171875 C 8.101562 0.0664062 7.320312 0.1875 6.53125 0.1875 C 5.40625 0.1875 4.390625 -0.0507812 3.484375 -0.53125 C 2.585938 -1.007812 1.882812 -1.675781 1.375 -2.53125 C 0.863281 -3.382812 0.609375 -4.351562 0.609375 -5.4375 C 0.609375 -6.507812 0.863281 -7.472656 1.375 -8.328125 C 1.882812 -9.179688 2.59375 -9.847656 3.5 -10.328125 C 4.414062 -10.804688 5.441406 -11.046875 6.578125 -11.046875 C 7.523438 -11.046875 8.382812 -10.882812 9.15625 -10.5625 C 9.9375 -10.238281 10.59375 -9.773438 11.125 -9.171875 L 9.515625 -7.6875 C 8.734375 -8.5 7.796875 -8.90625 6.703125 -8.90625 C 6.003906 -8.90625 5.382812 -8.757812 4.84375 -8.46875 C 4.3125 -8.175781 3.894531 -7.765625 3.59375 -7.234375 C 3.300781 -6.710938 3.15625 -6.113281 3.15625 -5.4375 C 3.15625 -4.757812 3.300781 -4.15625 3.59375 -3.625 C 3.894531 -3.101562 4.3125 -2.691406 4.84375 -2.390625 C 5.375 -2.097656 5.984375 -1.953125 6.671875 -1.953125 C 7.390625 -1.953125 8.039062 -2.109375 8.625 -2.421875 Z M 8.625 -5.59375 "/></g></g><g style="fill:#004aad;fill-opacity:1;"><g transform="translate(291.391511, 210.452389)"><path style="stroke:none" d="M 1.28125 -10.859375 L 3.796875 -10.859375 L 3.796875 0 L 1.28125 0 Z M 1.28125 -10.859375 "/></g></g><g style="fill:#004aad;fill-opacity:1;"><g transform="translate(296.476784, 210.452389)"><path style="stroke:none" d="M 9.703125 -2.015625 L 9.703125 0 L 1.28125 0 L 1.28125 -10.859375 L 9.5 -10.859375 L 9.5 -8.84375 L 3.78125 -8.84375 L 3.78125 -6.484375 L 8.828125 -6.484375 L 8.828125 -4.53125 L 3.78125 -4.53125 L 3.78125 -2.015625 Z M 9.703125 -2.015625 "/></g></g><g style="fill:#004aad;fill-opacity:1;"><g transform="translate(306.879887, 210.452389)"><path style="stroke:none" d="M 4.859375 0.1875 C 3.992188 0.1875 3.160156 0.0703125 2.359375 -0.15625 C 1.554688 -0.394531 0.914062 -0.703125 0.4375 -1.078125 L 1.28125 -2.96875 C 1.75 -2.625 2.300781 -2.347656 2.9375 -2.140625 C 3.582031 -1.929688 4.226562 -1.828125 4.875 -1.828125 C 5.582031 -1.828125 6.109375 -1.929688 6.453125 -2.140625 C 6.796875 -2.359375 6.96875 -2.644531 6.96875 -3 C 6.96875 -3.25 6.863281 -3.457031 6.65625 -3.625 C 6.457031 -3.800781 6.203125 -3.941406 5.890625 -4.046875 C 5.578125 -4.148438 5.148438 -4.265625 4.609375 -4.390625 C 3.773438 -4.585938 3.09375 -4.785156 2.5625 -4.984375 C 2.039062 -5.179688 1.59375 -5.492188 1.21875 -5.921875 C 0.84375 -6.359375 0.65625 -6.941406 0.65625 -7.671875 C 0.65625 -8.296875 0.820312 -8.863281 1.15625 -9.375 C 1.5 -9.882812 2.015625 -10.289062 2.703125 -10.59375 C 3.390625 -10.894531 4.234375 -11.046875 5.234375 -11.046875 C 5.921875 -11.046875 6.59375 -10.960938 7.25 -10.796875 C 7.914062 -10.628906 8.5 -10.390625 9 -10.078125 L 8.21875 -8.171875 C 7.21875 -8.742188 6.21875 -9.03125 5.21875 -9.03125 C 4.507812 -9.03125 3.988281 -8.914062 3.65625 -8.6875 C 3.320312 -8.457031 3.15625 -8.15625 3.15625 -7.78125 C 3.15625 -7.414062 3.347656 -7.140625 3.734375 -6.953125 C 4.117188 -6.773438 4.710938 -6.597656 5.515625 -6.421875 C 6.335938 -6.222656 7.007812 -6.023438 7.53125 -5.828125 C 8.0625 -5.628906 8.515625 -5.316406 8.890625 -4.890625 C 9.273438 -4.472656 9.46875 -3.90625 9.46875 -3.1875 C 9.46875 -2.5625 9.289062 -1.992188 8.9375 -1.484375 C 8.59375 -0.972656 8.070312 -0.566406 7.375 -0.265625 C 6.6875 0.0351562 5.847656 0.1875 4.859375 0.1875 Z M 4.859375 0.1875 "/></g></g></g></svg>